<!DOCTYPE svg PUBLIC "-//W3C//DTD SVG 1.1//EN" "http://www.w3.org/Graphics/SVG/1.1/DTD/svg11.dtd">
<!-- Uploaded to: SVG Repo, www.svgrepo.com, Transformed by: SVG Repo Mixer Tools -->
<svg fill="#ffffff" height="800px" width="800px" version="1.1" id="Capa_1" xmlns="http://www.w3.org/2000/svg" xmlns:xlink="http://www.w3.org/1999/xlink" viewBox="0 0 453.499 453.499" xml:space="preserve">
<g id="SVGRepo_bgCarrier" stroke-width="0"/>
<g id="SVGRepo_tracerCarrier" stroke-linecap="round" stroke-linejoin="round"/>
<g id="SVGRepo_iconCarrier"> <g> <path d="M408.635,242.191h-7.094v-27.643c3.044-5.698,4.653-12.067,4.653-18.57c0-14.797-8.168-28.223-21.315-35.036 c-4.772-2.476-8.756-6.087-11.629-10.486v-20.686c0-3.59-2.91-6.5-6.5-6.5s-6.5,2.91-6.5,6.5v20.683 c-2.866,4.379-6.889,8.011-11.742,10.548c-13.128,6.855-21.252,20.312-21.202,35.119c0.023,6.419,1.63,12.719,4.652,18.368v27.705 H312.25v-28.272c8.509-14.856,13-31.705,13-48.92c0-36.953-20.399-70.481-53.236-87.5c-16.181-8.393-29.542-20.904-38.763-36.233 V6.5c0-3.59-2.91-6.5-6.5-6.5c-3.59,0-6.5,2.91-6.5,6.5v34.765c-9.173,15.241-22.635,27.804-39.049,36.383 c-32.786,17.121-53.076,50.727-52.951,87.704c0.058,16.985,4.546,33.643,12.999,48.381v28.458H121.54v-27.641 c3.043-5.698,4.653-12.068,4.653-18.572c0-14.797-8.168-28.223-21.314-35.037c-4.773-2.475-8.757-6.087-11.629-10.486v-20.685 c0-3.59-2.91-6.5-6.5-6.5s-6.5,2.91-6.5,6.5v20.684c-2.866,4.379-6.889,8.01-11.742,10.547 c-13.128,6.855-21.252,20.312-21.202,35.119c0.022,6.42,1.63,12.719,4.652,18.367v27.705h-7.093c-3.59,0-6.5,2.91-6.5,6.5v198.308 c0,3.59,2.91,6.5,6.5,6.5h363.77c3.59,0,6.5-2.91,6.5-6.5V248.691C415.135,245.101,412.224,242.191,408.635,242.191z M354.527,172.522c4.645-2.428,8.768-5.581,12.215-9.311c3.441,3.74,7.544,6.88,12.152,9.271c8.82,4.571,14.3,13.574,14.3,23.496 c0,3.703-0.775,7.34-2.256,10.69h-48.35c-1.486-3.328-2.271-6.933-2.283-10.594C340.272,186.145,345.72,177.121,354.527,172.522z M344.958,219.667h43.583v22.523h-43.583V219.667z M226.745,55.062c3.993,5.6,8.513,10.798,13.483,15.55h-27.022 C218.212,65.845,222.75,60.647,226.745,55.062z M187.221,89.17c3.275-1.712,6.44-3.572,9.501-5.558h59.978 c3.009,1.945,6.118,3.762,9.33,5.428c28.51,14.776,46.221,43.882,46.221,75.959c0,14.576-3.709,28.845-10.741,41.5H152.097 c-7.052-12.594-10.797-26.757-10.847-41.192C141.142,133.208,158.756,104.034,187.221,89.17z M154.249,219.499h145v22.692h-145 V219.499z M74.527,172.522c4.645-2.428,8.768-5.581,12.214-9.311c3.442,3.741,7.545,6.88,12.153,9.271 c8.82,4.571,14.299,13.574,14.299,23.496c0,3.703-0.775,7.34-2.255,10.69h-48.35c-1.486-3.327-2.271-6.932-2.283-10.594 C60.272,186.145,65.72,177.121,74.527,172.522z M64.958,219.667h43.583v22.523H64.958V219.667z M51.365,255.191h89.885v185.308 H51.365V255.191z M270.84,440.499h-88.18v-97.517c0-14.038,8.257-26.862,21.036-32.672l23.054-10.481l23.053,10.481 c12.779,5.81,21.036,18.634,21.036,32.672V440.499z M283.84,440.499v-97.517c0-19.123-11.248-36.592-28.655-44.506l-25.744-11.704 c-1.71-0.778-3.671-0.777-5.38,0l-25.745,11.704c-17.408,7.914-28.656,25.384-28.656,44.506v97.517h-15.411V255.191h145v185.308 H283.84z M402.135,440.499H312.25V255.191h89.885V440.499z"/> <path d="M107.804,279.747l-8.807-4.004c-1.71-0.777-3.671-0.777-5.381,0l-8.806,4.003c-7.478,3.399-12.31,10.904-12.31,19.118 v32.905c0,3.59,2.91,6.5,6.5,6.5h34.612c3.59,0,6.5-2.91,6.5-6.5v-32.905C120.113,290.65,115.281,283.146,107.804,279.747z M107.113,325.269H85.501v-26.405c0-3.129,1.841-5.988,4.69-7.284l6.116-2.781l6.117,2.781c2.849,1.295,4.689,4.154,4.689,7.283 V325.269z"/> <path d="M107.804,357.747l-8.807-4.004c-1.71-0.777-3.671-0.777-5.381,0l-8.806,4.003c-7.478,3.399-12.31,10.904-12.31,19.118 v32.905c0,3.59,2.91,6.5,6.5,6.5h34.612c3.59,0,6.5-2.91,6.5-6.5v-32.905C120.113,368.65,115.281,361.146,107.804,357.747z M107.113,403.269H85.501v-26.405c0-3.129,1.841-5.988,4.69-7.284l6.116-2.781l6.117,2.781c2.849,1.295,4.689,4.154,4.689,7.283 V403.269z"/> <path d="M339.885,338.269h34.612c3.59,0,6.5-2.91,6.5-6.5v-32.905c0-8.214-4.831-15.719-12.309-19.118l-8.807-4.004 c-1.709-0.777-3.672-0.777-5.381,0l-8.806,4.003c-7.479,3.399-12.311,10.903-12.311,19.118v32.905 C333.385,335.359,336.296,338.269,339.885,338.269z M346.385,298.864c0-3.129,1.841-5.988,4.69-7.284l6.116-2.781l6.116,2.781 c2.849,1.295,4.689,4.154,4.689,7.284v26.405h-21.612V298.864z"/> <path d="M339.885,416.269h34.612c3.59,0,6.5-2.91,6.5-6.5v-32.905c0-8.214-4.831-15.719-12.309-19.118l-8.807-4.004 c-1.709-0.777-3.672-0.777-5.381,0l-8.806,4.003c-7.479,3.399-12.311,10.903-12.311,19.118v32.905 C333.385,413.359,336.296,416.269,339.885,416.269z M346.385,376.864c0-3.129,1.841-5.988,4.69-7.284l6.116-2.781l6.116,2.781 c2.849,1.295,4.689,4.154,4.689,7.284v26.405h-21.612V376.864z"/> </g> </g>
</svg>